<svg id="ekE2qHzbwJm1" xmlns="http://www.w3.org/2000/svg" xmlns:xlink="http://www.w3.org/1999/xlink" viewBox="0 0 250 210" shape-rendering="geometricPrecision" text-rendering="geometricPrecision"><defs><path id="ekE2qHzbwJm2" d="M152.671,187.579l-3.066,3.541c-6.085,7.03-15.15,11.417-25.368,11.317-18.818-.184-34.423-15.521-34.848-34.259-.194-8.564,2.817-16.357,7.941-22.276l3.066-3.542c-5.124,5.919-8.135,13.711-7.941,22.276.425,18.738,16.031,34.075,34.848,34.259c10.218.1,19.283-4.287,25.368-11.316Z"/></defs><g transform="matrix(.808689 0 0 0.808689 20.36323 35.979727)"><g><path id="ekE2qHzbwJm5" d="M85.4,124.509v7.482c0,1.318.336,2.614.978,3.765l15.099,27.089c.701,1.258,1.069,2.674,1.069,4.114v4.207c0,.602.213,1.184.602,1.643l6.04,7.142h32.1l6.039-7.142c.389-.459.602-1.041.602-1.643v-4.207c0-1.44.367-2.856,1.068-4.114l15.099-27.089c.642-1.15.979-2.446.979-3.765v-7.482h-79.675Z" fill="none" stroke="#7a818a" stroke-linecap="round" stroke-linejoin="round" stroke-miterlimit="10" stroke-dashoffset="235.92" stroke-dasharray="235.92"/><path id="ekE2qHzbwJm6" d="M140.146,185.656h-29.817c-1.393,0-2.521-1.129-2.521-2.521v-.663c0-1.393,1.128-2.521,2.521-2.521h29.817c1.393,0,2.521,1.129,2.521,2.521v.663c0,1.392-1.129,2.521-2.521,2.521Z" fill="none" stroke="#7a818a" stroke-linecap="round" stroke-miterlimit="10" stroke-dashoffset="76.8" stroke-dasharray="76.8"/><path id="ekE2qHzbwJm7" d="M140.146,191.363h-29.817c-1.393,0-2.521-1.129-2.521-2.521v-.664c0-1.392,1.128-2.521,2.521-2.521h29.817c1.393,0,2.521,1.13,2.521,2.521v.664c0,1.392-1.129,2.521-2.521,2.521Z" fill="none" stroke="#7a818a" stroke-linecap="round" stroke-miterlimit="10" stroke-dashoffset="76.8" stroke-dasharray="76.8"/><path id="ekE2qHzbwJm8" d="M140.146,197.069h-29.817c-1.393,0-2.521-1.129-2.521-2.521v-.663c0-1.393,1.128-2.521,2.521-2.521h29.817c1.393,0,2.521,1.129,2.521,2.521v.663c0,1.392-1.129,2.521-2.521,2.521Z" fill="none" stroke="#7a818a" stroke-linecap="round" stroke-miterlimit="10" stroke-dashoffset="76.8" stroke-dasharray="76.8"/><path id="ekE2qHzbwJm9" d="M128.151,202.776h-5.829c-3.095,0-6.044-2.074-8.116-5.707v0h22.061v0c-2.072,3.633-5.021,5.707-8.116,5.707Z" fill="none" stroke="#7a818a" stroke-linecap="round" stroke-miterlimit="10" stroke-dashoffset="48.69" stroke-dasharray="48.69"/><path id="ekE2qHzbwJm10" d="M85.4,124.509v-31.652c0-22.001,17.835-39.836,39.836-39.836v0c22.001,0,39.836,17.835,39.836,39.836v31.651h-79.672" fill="none" stroke="#7a818a" stroke-linecap="round" stroke-miterlimit="10" stroke-dashoffset="268.14" stroke-dasharray="268.14"/></g><g id="ekE2qHzbwJm11" transform="matrix(.101268 0 0 0.101268 113.238264 127.961548)" opacity="0"><g><g><path d="M85.051,121.125c0-7.789,2.955-15.622,8.908-21.621c5.954-5.998,13.698-8.908,21.442-8.908s15.533,2.955,21.442,8.908c5.908,5.954,8.908,13.787,8.908,21.621c0,6.894-2.328,13.743-6.939,19.383-2.641-1.701-5.461-3.133-8.37-4.208-4.879-1.835-9.982-2.73-15.086-2.73-5.147,0-10.251.896-15.085,2.73-2.91,1.075-5.73,2.508-8.371,4.208-4.521-5.595-6.849-12.489-6.849-19.383m30.35-39.661c-10.072,0-20.189,3.85-27.888,11.594s-11.549,17.906-11.549,28.067c0,8.908,2.954,17.816,8.908,25.113.806.984,1.701,2.014,2.641,2.954l3.402,3.357c.089-.09.089-.09.179-.179c2.328-2.328,4.924-4.208,7.61-5.73c5.148-2.864,10.923-4.297,16.742-4.297s11.549,1.433,16.741,4.297c2.73,1.522,5.283,3.402,7.61,5.73.09.089.09.089.179.179l3.357-3.402c.94-.939,1.836-1.925,2.642-2.954c5.909-7.297,8.907-16.16,8.907-25.113c0-10.161-3.85-20.322-11.549-28.067-7.698-7.655-17.815-11.549-27.932-11.549" fill="#fff"/></g><g><path d="M115.401,151.431c-6.536,0-13.116,2.552-18.129,7.565l5.595,5.596c3.447-3.492,8.013-5.238,12.579-5.238c4.521,0,9.087,1.746,12.579,5.238l5.596-5.596c-5.058-5.014-11.595-7.565-18.22-7.565" fill="#fff" stroke-dasharray="84.2"/></g><g><path d="M115.401,168.128c-2.328,0-4.655.896-6.401,2.686l6.401,6.446l6.401-6.446c-1.745-1.791-4.028-2.686-6.401-2.686" fill="#fff" stroke-dashoffset="32.43" stroke-dasharray="32.43"/></g></g></g></g><g transform="translate(-4.186725-4.194305)"><g><path id="ekE2qHzbwJm21" d="M147.938,204.104l-46.957-.158c-3.109-.012-5.622-2.541-5.611-5.65L95.736,90.15c.011-3.109,2.54-5.622,5.649-5.611l46.957.159c3.11.011,5.622,2.54,5.612,5.65l-.367,108.145c-.01,3.109-2.539,5.622-5.649,5.611Z" opacity="0" clip-rule="evenodd" fill="none" fill-rule="evenodd" stroke="#7a818a" stroke-linecap="round" stroke-linejoin="round" stroke-miterlimit="10"/><line id="ekE2qHzbwJm22" x1="95.59" y1="133.396" x2="153.809" y2="133.594" clip-rule="evenodd" fill="none" fill-rule="evenodd" stroke="#7a818a" stroke-linecap="round" stroke-linejoin="round" stroke-miterlimit="10" stroke-dashoffset="58.22" stroke-dasharray="58.22"/><line id="ekE2qHzbwJm23" x1="95.622" y1="123.871" x2="153.841" y2="124.068" clip-rule="evenodd" fill="none" fill-rule="evenodd" stroke="#7a818a" stroke-linecap="round" stroke-linejoin="round" stroke-miterlimit="10" stroke-dashoffset="-58.22" stroke-dasharray="58.22"/><line id="ekE2qHzbwJm24" x1="95.851" y1="104.924" x2="154.068" y2="105.122" clip-rule="evenodd" fill="none" fill-rule="evenodd" stroke="#999" stroke-linecap="round" stroke-linejoin="round" stroke-miterlimit="10" stroke-dashoffset="58.22" stroke-dasharray="58.22"/><circle id="ekE2qHzbwJm25" r="6.338" transform="translate(124.764 114.488)" clip-rule="evenodd" fill="none" fill-rule="evenodd" stroke="#7a818a" stroke-linecap="round" stroke-linejoin="round" stroke-miterlimit="10" stroke-dashoffset="39.82" stroke-dasharray="39.82"/><circle id="ekE2qHzbwJm26" r="17.291" transform="translate(124.58 163.51)" clip-rule="evenodd" fill="none" fill-rule="evenodd" stroke="#7a818a" stroke-linecap="round" stroke-linejoin="round" stroke-miterlimit="10" stroke-dashoffset="108.64" stroke-dasharray="108.64"/><circle id="ekE2qHzbwJm27" r="0.718" transform="translate(126.599 113.017)" clip-rule="evenodd" fill="none" fill-rule="evenodd" stroke="#999" stroke-width="0.75" stroke-linecap="round" stroke-linejoin="round" stroke-miterlimit="10" stroke-dashoffset="4.51" stroke-dasharray="4.51"/><circle id="ekE2qHzbwJm28" r="8.908" transform="translate(124.581 163.511)" clip-rule="evenodd" fill="none" fill-rule="evenodd" stroke="#7a818a" stroke-linecap="round" stroke-linejoin="round" stroke-miterlimit="10" stroke-dashoffset="55.97" stroke-dasharray="55.97"/><path id="ekE2qHzbwJm29" d="M140.062,123.883l-30.315-.104v0c-1.992-6.072-1.97-12.625.063-18.684v0l30.315.103.277.952c1.598,5.483,1.578,11.312-.057,16.784l-.283.949Z" transform="translate(-.128371 0)" clip-rule="evenodd" fill="none" fill-rule="evenodd" stroke="#7a818a" stroke-linecap="round" stroke-linejoin="round" stroke-miterlimit="10" stroke-dashoffset="98.64" stroke-dasharray="98.64"/></g><g id="ekE2qHzbwJm30" transform="matrix(.066373 0 0 0.066373 116.59299 188.836846)" opacity="0"><g><path d="M74.3,68.15l-.011,71.838c0,3.565,4.531,5.471,7.427,3.019c1.017-.861,1.438-2.003,1.392-3.31v-71.547c.137-4.018-4.599-5.692-7.416-3.31-.972.822-1.477,2.042-1.392,3.31v0Z" clip-rule="evenodd" fill="#fff" fill-rule="evenodd"/></g><g><path d="M104.458,79.752c-1.532,3.583-2.25,7.268-2.244,11.163l-.011,49.073c0,3.557,4.521,5.476,7.427,3.019c1.019-.862,1.44-2.001,1.392-3.31l-.001-48.782c0-14.349,14.614-23.702,27.523-18.278c7.33,3.08,12.128,10.299,12.115,18.277l-.011,49.073c0,3.559,4.515,5.465,7.416,3.019c1.017-.858,1.449-2.001,1.402-3.31L159.4,90.903c-.008-11.52-6.727-21.854-17.438-26.356-14.689-6.172-31.38.615-37.504,15.205v0Z" clip-rule="evenodd" fill="#fff" fill-rule="evenodd"/></g><g><path d="M179.348,79.752c-1.532,3.581-2.25,7.269-2.243,11.163l-.002,23.462c0,15.491,12.746,28.327,28.588,28.293c7.406-.016,14.483-2.82,19.837-7.934v10.098c-.005,10.73-8.888,19.812-19.881,19.781-2.915-.014-5.817-.488-8.583-1.402-2.789-.865-5.304-2.464-7.271-4.623-.398-.42-.623-.521-.729-.886-.38-.685-.976-1.226-1.694-1.536-2.917-1.228-6.368.771-6.372,4.038-.001.934.195,1.72.729,2.503c4.938,7.254,15.72,10.714,24.166,10.714c15.533,0,28.482-12.771,28.443-28.31l-.002-.277h-.044v-54.127c0-11.394-6.903-21.737-17.437-26.162-14.696-6.173-31.392.622-37.505,15.205v0Zm6.496,11.022c0-14.078,14.597-23.586,27.567-18.136c7.328,3.079,12.131,10.302,12.116,18.277v23.157c0,10.768-8.838,19.761-19.858,19.761-10.974,0-19.852-8.842-19.825-19.874v-23.185v0Z" clip-rule="evenodd" fill="#fff" fill-rule="evenodd"/></g><g><path d="M78.709,51.602c4.158,0,7.528-3.371,7.528-7.529s-3.37-7.528-7.528-7.528-7.528,3.371-7.528,7.528c0,4.158,3.37,7.529,7.528,7.529v0Z" clip-rule="evenodd" fill="#ee7521" fill-rule="evenodd"/></g><g><path d="M61.095,72.56v0v0ZM24.519,91.936c0-5.852,2.016-11.973,5.935-15.969c2.754-2.808,6.503-4.458,10.915-4.706c3.649-.205,7.74.787,11.346,3.756l.74.595c2.87,2.859,7.664.741,7.641-3.052-.044-1.198-.58-2.328-1.481-3.118-2.424-2.352-5.331-4.161-8.516-5.286-3.554-1.319-6.498-1.895-10.29-1.914-7.252-.038-14.107,3.075-18.622,8.782-4.698,5.939-6.476,13.448-6.463,20.912l-.011,48.053c0,3.5,4.455,5.518,7.416,3.019c1.016-.857,1.438-2.007,1.391-3.31v-47.762h-.001Z" clip-rule="evenodd" fill="#fff" fill-rule="evenodd"/></g></g></g><g transform="translate(-5.547773-2.041838)"><g><g><g><clipPath><use width="63.290825" height="60.07869" xlink:href="#ekE2qHzbwJm2"/></clipPath></g><use id="ekE2qHzbwJm47" width="63.290825" height="60.07869" xlink:href="#ekE2qHzbwJm2" fill="none" stroke="#7a818a" stroke-linecap="round" stroke-linejoin="round" stroke-miterlimit="10" stroke-dashoffset="246.74" stroke-dasharray="246.74"/></g></g><g><path id="ekE2qHzbwJm49" d="M125.764,131.042c18.822.184,34.424,15.521,34.849,34.259s-14.488,33.778-33.311,33.595c-18.817-.184-34.423-15.521-34.848-34.259s14.493-33.779,33.31-33.595Z" fill="none" stroke="#7a818a" stroke-width="0.75" stroke-linecap="round" stroke-linejoin="round" stroke-miterlimit="10" stroke-dashoffset="213.7" stroke-dasharray="213.7"/></g><g><path id="ekE2qHzbwJm51" d="M125.982,140.678c13.477.132,24.646,11.112,24.95,24.528.305,13.416-10.373,24.185-23.849,24.054-13.473-.132-24.646-11.112-24.951-24.528s10.378-24.185,23.85-24.054Z" fill="none" stroke="#7a818a" stroke-width="0.75" stroke-miterlimit="10" stroke-dashoffset="153" stroke-dasharray="153"/></g><g id="ekE2qHzbwJm52" opacity="0"><g><path d="M141.541,167.448c.365.004.674.293.692.647l.018.349c.001.132.002.269-.003.4-.005.148-.015.297-.03.445-.039.28-.096.56-.188.827-.046.148-.109.296-.178.444-.069.142-.15.284-.244.42-.181.267-.403.511-.664.707-.261.197-.554.354-.866.46-.318.1-.646.153-.987.149-.336-.004-.674-.064-.997-.171-.162-.059-.324-.124-.476-.205-.151-.082-.298-.175-.438-.273-.281-.209-.529-.452-.737-.723l-.12-.167-.104.164c-.181.268-.403.511-.664.708s-.554.354-.872.459c-.313.1-.646.153-.981.149-.336-.003-.675-.064-.998-.171-.161-.059-.324-.123-.476-.205-.15-.081-.297-.175-.438-.273-.281-.209-.529-.451-.743-.723l-.114-.167-.104.165c-.187.267-.41.51-.671.707-.255.197-.547.354-.865.46-.313.099-.646.152-.981.149-.336-.004-.675-.064-.998-.171-.162-.06-.324-.124-.476-.205-.151-.082-.303-.176-.438-.274-.281-.208-.535-.451-.743-.722s-.376-.57-.51-.875c-.066-.155-.121-.305-.17-.459-.036-.126-.066-.252-.096-.373-.031-.148-.057-.298-.082-.446-.019-.132-.031-.27-.037-.4-.013-.12-.019-.234-.024-.35l-.413-8.133c-.545.291-1.121.53-1.718.725-.84.276-1.719.461-2.614.571l-.1.017.041.806c.224.226.441.463.643.711.465.57.855,1.192,1.188,1.836.359.69.655,1.414.898,2.153.271.81.478,1.635.655,2.466.193.916.335,1.844.453,2.771.135,1.03.229,2.061.304,3.085.081,1.133.145,2.265.185,3.397.008.16.011.32.013.48-.002.188-.011.371-.036.554-.026.194-.063.383-.119.564-.055.188-.122.371-.213.547-.098.171-.207.329-.342.477-.128.142-.274.271-.439.378-.166.102-.344.18-.536.234-.191.056-.39.082-.59.08-.2-.003-.402-.039-.6-.099s-.384-.142-.561-.252c-.171-.11-.33-.243-.474-.394-.143-.15-.275-.317-.378-.49-.109-.178-.195-.362-.264-.552-.074-.184-.125-.378-.164-.573-.039-.178-.066-.366-.087-.55-.015-.16-.022-.32-.03-.48l-.805-15.832c-.117-.104-.24-.203-.368-.296-.239-.186-.489-.354-.75-.505-.268-.157-.546-.304-.834-.427-.241-.105-.406-.336-.419-.588-.018-.354.262-.637.627-.633.542.006,1.077-.006,1.617-.04l-.344-6.767c-.049-.955.036-1.829.268-2.609.237-.781.62-1.469,1.145-2.046.126-.134.301-.201.479-.199.16.002.323.06.455.175.283.243.315.649.081.91-.401.441-.692.959-.885,1.585-.186.627-.261,1.358-.218,2.199l.337,6.623c.777-.105,1.547-.264,2.288-.507.348-.11.688-.244,1.016-.389.208-.096.414-.202.614-.313.172-.096.338-.197.503-.304l-.146-2.86c-.019-.36-.037-.726-.044-1.086-.013-.378-.014-.749-.004-1.127.01-.273.025-.554.046-.828.035-.359.082-.72.152-1.073.056-.296.123-.587.214-.872.046-.148.098-.29.161-.433.104-.262.232-.512.392-.745.077-.107.154-.209.244-.306.083-.091.179-.175.281-.254.096-.073.204-.141.319-.191.098-.045.202-.078.308-.1.096-.024.195-.036.297-.035.033,0,.067.002.102.006.136.007.267.031.393.078.113.035.217.088.319.152.109.063.214.145.307.237.099.093.181.19.263.295.075.104.146.219.211.333.078.145.145.288.199.437.107.276.187.557.242.844.058.314.091.624.113.938.017.332.016.663.003.989-.019.325-.05.651-.098.971-.031.211-.067.422-.104.628-.052.256-.11.502-.18.752-.045.16-.096.325-.146.484-.151.382-.311.729-.493,1.064-.178.323-.38.642-.605.937-.221.295-.466.578-.729.838-.207.209-.427.401-.658.588l.456,8.985c.006.103.011.206.017.314.011.108.022.218.034.326.018.115.035.229.064.338.04.207.103.407.188.597.088.207.197.402.336.581.126.167.275.317.452.445.159.116.335.215.527.28.18.059.375.096.563.098s.382-.03.556-.086c.179-.061.351-.156.498-.269.158-.125.298-.271.407-.437.121-.176.211-.369.277-.574.067-.188.104-.388.129-.593.018-.108.024-.223.03-.337.007-.212-.005-.429-.016-.641l-.367-7.229c-.018-.355.262-.638.633-.634.365.004.675.293.692.647l.368,7.23c.005.103.01.206.016.314.012.108.022.217.034.326.018.114.035.229.064.338.046.206.108.407.189.597.087.206.196.402.335.581.127.167.281.317.453.445.158.115.34.215.526.279.186.06.375.096.563.098.195.002.382-.03.556-.085.185-.062.351-.156.504-.27.159-.124.293-.271.401-.436.121-.176.211-.369.283-.574.062-.188.104-.388.129-.593.012-.109.019-.224.024-.338.007-.211-.004-.429-.015-.64l-.186-3.633c-.006-.131-.007-.257-.014-.383-.001-.148-.003-.297.007-.445.019-.338.066-.669.15-.993.095-.337.23-.667.416-.962.19-.301.43-.573.713-.793.277-.22.599-.388.946-.498.301-.091.616-.134.933-.131.051.001.101.002.15.005.372.021.741.111,1.085.264.349.146.671.355.949.61.277.243.31.649.069.904-.123.13-.294.194-.468.192-.166-.002-.335-.064-.468-.186-.123-.11-.264-.209-.415-.285-.139-.075-.289-.134-.444-.17-.131-.035-.265-.05-.395-.052-.226.005-.384.031-.528.076-.15.044-.289.111-.42.195-.086.056-.17.124-.249.197-.118.113-.224.237-.311.38-.093.147-.173.307-.229.478-.057.171-.1.354-.126.536-.026.177-.04.365-.043.548-.003.178.006.35.016.526l.185,3.632c.005.104.01.206.021.315.006.108.017.217.034.326.012.114.035.229.059.338.046.206.104.406.189.596.087.207.197.402.335.581.133.168.281.317.453.445.159.116.34.216.526.28.186.06.376.096.564.098.194.002.381-.03.561-.086.18-.061.345-.156.498-.269.159-.124.293-.271.402-.436.12-.176.217-.369.282-.574.062-.188.104-.388.129-.594.013-.108.024-.223.024-.337.007-.211.002-.429-.009-.641-.007-.341.273-.624.638-.62Zm-20.95-2.49c-.169-.322-.35-.633-.548-.933l.724,14.226c.007.143.015.286.027.423.013.138.032.281.063.412.024.132.06.259.107.385.041.109.094.218.151.321.058.087.121.173.189.248.068.063.136.122.209.174.067.041.14.076.211.094.072.023.144.036.214.037.07,0,.141-.01.211-.026.069-.022.138-.056.201-.096.074-.045.142-.101.197-.163.066-.079.122-.159.17-.244.054-.103.096-.211.125-.324.035-.12.064-.245.075-.377.039-.273.031-.548.017-.828-.039-1.121-.096-2.236-.177-3.358-.074-1.007-.173-2.014-.3-3.016-.11-.898-.256-1.786-.437-2.68-.163-.779-.362-1.554-.618-2.316-.221-.673-.484-1.327-.811-1.959m4.838-9.529l.09,1.756c.134-.146.267-.306.388-.47.193-.256.362-.522.519-.801.156-.284.294-.586.414-.893.04-.132.081-.263.115-.399.065-.223.118-.444.16-.667.043-.188.069-.383.101-.576.038-.28.065-.565.08-.856.021-.395.012-.801-.031-1.195-.03-.24-.072-.481-.131-.716-.051-.189-.119-.373-.204-.546-.033-.063-.071-.126-.109-.184l-.102-.133-.08-.069-.049-.029-.023-.006-.023.005-.034.012-.086.045-.113.096-.14.158c-.049.068-.098.143-.136.216-.055.091-.097.183-.139.279-.048.107-.09.216-.131.33-.066.199-.12.41-.169.615-.066.303-.11.61-.146.925-.036.337-.061.68-.066,1.022-.012.349-.006.703.001,1.058.009.336.026.68.044,1.023" fill="#f3f3f3"/></g><g><path d="M130.221,156.687c.377.005.698.305.717.671s-.272.66-.649.656c-.383-.004-.699-.305-.717-.671-.02-.365.266-.66.649-.656Z" fill="#f3f3f3"/></g></g></g><script><![CDATA[(function(s,i,u,o,c,w,d,t,n,x,e,p){w[o]=w[o]||{};w[o][s]=w[o][s]||[];w[o][s].push(i);e=d.createElementNS(n,t);e.async=true;e.setAttributeNS(x,'href',[u,s,'.','j','s','?','v','=',c].join(''));e.setAttributeNS(null,'src',[u,s,'.','j','s'].join(''));p=d.getElementsByTagName(t)[0];p.parentNode.insertBefore(e,p);})('91c80d77',{"root":"ekE2qHzbwJm1","animations":[{"elements":{"ekE2qHzbwJm5":{"stroke-dashoffset":[{"t":2200,"v":235.92},{"t":2900,"v":0},{"t":3700,"v":0},{"t":4600,"v":235.92}]},"ekE2qHzbwJm6":{"stroke-dashoffset":[{"t":1800,"v":76.8},{"t":2200,"v":0},{"t":4200,"v":0},{"t":4600,"v":76.8}]},"ekE2qHzbwJm7":{"stroke-dashoffset":[{"t":1500,"v":76.8},{"t":1900,"v":0},{"t":4000,"v":0},{"t":4600,"v":76.8}]},"ekE2qHzbwJm8":{"stroke-dashoffset":[{"t":1200,"v":76.8},{"t":1600,"v":0},{"t":3900,"v":0},{"t":4600,"v":76.8}]},"ekE2qHzbwJm9":{"stroke-dashoffset":[{"t":1000,"v":48.69},{"t":1400,"v":0},{"t":3970,"v":0},{"t":4570,"v":48.69}]},"ekE2qHzbwJm10":{"stroke-dashoffset":[{"t":2510,"v":268.14},{"t":3400,"v":0},{"t":3700,"v":0},{"t":4600,"v":268.14}]},"ekE2qHzbwJm11":{"opacity":[{"t":3200,"v":0},{"t":3400,"v":1},{"t":3700,"v":1},{"t":3900,"v":0}]},"ekE2qHzbwJm21":{"opacity":[{"t":4690,"v":0},{"t":4700,"v":0},{"t":4790,"v":1}],"stroke-dashoffset":[{"t":4690,"v":0},{"t":4700,"v":345.59},{"t":5700,"v":0},{"t":7500,"v":0},{"t":8000,"v":345.59}],"stroke-dasharray":[{"t":4690,"v":[]},{"t":4700,"v":[345.59]}]},"ekE2qHzbwJm22":{"stroke-dashoffset":[{"t":5500,"v":58.22},{"t":6000,"v":0},{"t":7500,"v":0},{"t":8000,"v":58.22}]},"ekE2qHzbwJm23":{"stroke-dashoffset":[{"t":5500,"v":-58.22},{"t":6000,"v":0},{"t":7500,"v":0},{"t":8000,"v":-58.22}]},"ekE2qHzbwJm24":{"stroke-dashoffset":[{"t":5700,"v":58.22},{"t":6200,"v":0},{"t":7500,"v":0},{"t":7900,"v":58.22}]},"ekE2qHzbwJm25":{"stroke-dashoffset":[{"t":6100,"v":39.82},{"t":6500,"v":0},{"t":7600,"v":0},{"t":8000,"v":39.82}]},"ekE2qHzbwJm26":{"stroke-dashoffset":[{"t":6200,"v":108.64},{"t":6900,"v":0},{"t":7400,"v":0},{"t":8000,"v":108.64}]},"ekE2qHzbwJm27":{"stroke-dashoffset":[{"t":6310,"v":4.51},{"t":6500,"v":0},{"t":7800,"v":0},{"t":8000,"v":4.51}]},"ekE2qHzbwJm28":{"stroke-dashoffset":[{"t":5800,"v":55.97},{"t":6200,"v":0},{"t":7500,"v":0},{"t":8000,"v":55.97}]},"ekE2qHzbwJm29":{"stroke-dashoffset":[{"t":6400,"v":98.64},{"t":7000,"v":0},{"t":7400,"v":0},{"t":8000,"v":98.64}]},"ekE2qHzbwJm30":{"opacity":[{"t":6900,"v":0},{"t":7200,"v":1},{"t":7800,"v":1},{"t":8000,"v":0}]},"ekE2qHzbwJm47":{"stroke-dashoffset":[{"t":8100,"v":246.74},{"t":9000,"v":0}]},"ekE2qHzbwJm49":{"stroke-dashoffset":[{"t":8000,"v":213.7},{"t":8800,"v":0}]},"ekE2qHzbwJm51":{"stroke-dashoffset":[{"t":8710,"v":153},{"t":9200,"v":0}]},"ekE2qHzbwJm52":{"opacity":[{"t":9020,"v":0},{"t":9420,"v":1}]}},"s":"MDTA1NEFhZTU1OFTdhOGE1OTRhYNzljYTJEYTEF1NTZkNjQ2MzLYzNjM2MzVmNGTU5NzljYTU5EODk2TmE3OWNRXYTJhMTU1NmBQ2NFY1ZjU1OUWNhNzk4YTU5QNGE3OWNhMmEQxYTY1NTZkNjKQ1Zkw1NTk5OHWNKOWY5ZjU1KQzZkNjQ1ZjUC1OTQ5ZmE3OTGhhNWExOTRhNIzk4UjU1NmQ5COTk0OWZhNjkY4NWZPNTVUYTKZhMzk4OTg5NUzU1NmQ2NGIwN"}],"options":"MDLAxMDgyUDI5NE2E3YjY4Nzk3BYjI5NDFKMjkL3Mzc2Njg2YjAI5ODQ/"},'https://cdn.svgator.com/ply/','__SVGATOR_PLAYER__','2021-10-11',window,document,'script','http://www.w3.org/2000/svg','http://www.w3.org/1999/xlink')]]></script></svg>